Coordinates
version=1
nRows=30
nColumns=38
inDegrees=no

Units are S.I. units (second, meters, Newtons, ...)
If the header above contains a line with 'inDegrees', this indicates whether rotational values are in degrees (yes) or radians (no).

endheader
time	pelvis_tilt	pelvis_list	pelvis_rotation	pelvis_tx	pelvis_ty	pelvis_tz	hip_flexion_r	hip_adduction_r	hip_rotation_r	knee_angle_r	ankle_angle_r	subtalar_angle_r	mtp_angle_r	hip_flexion_l	hip_adduction_l	hip_rotation_l	knee_angle_l	ankle_angle_l	subtalar_angle_l	mtp_angle_l	lumbar_extension	lumbar_bending	lumbar_rotation	arm_flex_r	arm_add_r	arm_rot_r	elbow_flex_r	pro_sup_r	wrist_flex_r	wrist_dev_r	arm_flex_l	arm_add_l	arm_rot_l	elbow_flex_l	pro_sup_l	wrist_flex_l	wrist_dev_l
0	2.6705	1.30956	-1.02303	0.656573	-0.559416	0.947985	-0.0357226	0.104731	-0.200959	0.447962	-0.217536	0	0	-0.107913	-0.245012	-0.0676918	1.25964	-0.23075	0	0	-0.350689	0.161217	-0.145755	-0.191198	-0.209876	-0.241595	0.782714	0.561876	0	0	-0.0991075	-0.255612	0.0744427	0.842261	1.55263	0	0
0.01	2.53323	1.35662	-0.896183	0.658315	-0.545509	0.945734	0.00699578	0.108916	-0.181414	0.442479	-0.208077	0	0	-0.0161786	-0.245677	-0.0703271	1.30338	-0.199083	0	0	-0.27109	0.154444	-0.140427	-0.185919	-0.220484	-0.210627	0.728016	0.539757	0	0	-0.10597	-0.24163	0.0716635	0.790222	1.56468	0	0
0.02	2.63614	1.33426	-0.999284	0.660702	-0.538156	0.949655	-0.0479455	0.110046	-0.17309	0.417279	-0.208385	0	0	-0.0179008	-0.238032	-0.0651694	1.32423	-0.185887	0	0	-0.310924	0.144049	-0.138213	-0.178243	-0.217248	-0.201486	0.730472	0.529684	0	0	-0.111187	-0.251837	0.0674059	0.799204	1.55825	0	0
0.03	2.65197	1.31401	-1.02335	0.659821	-0.529383	0.952456	-0.0909893	0.117708	-0.167849	0.391046	-0.219632	0	0	-0.0127487	-0.239099	-0.0707115	1.34312	-0.166939	0	0	-0.336141	0.154545	-0.12464	-0.184308	-0.226899	-0.200761	0.74912	0.517754	0	0	-0.111285	-0.24486	0.0668275	0.791332	1.5554	0	0
0.04	2.68907	1.30716	-1.0642	0.660679	-0.520009	0.954302	-0.122057	0.113971	-0.172747	0.374416	-0.222309	0	0	0.00322638	-0.230234	-0.07322	1.35528	-0.155427	0	0	-0.348833	0.148229	-0.11895	-0.186991	-0.227664	-0.199178	0.753899	0.510596	0	0	-0.116598	-0.245567	0.0652858	0.787734	1.55295	0	0
0.05	2.72948	1.30152	-1.10831	0.661064	-0.51082	0.95599	-0.150539	0.106392	-0.180376	0.361556	-0.224772	0	0	0.0205098	-0.214676	-0.0816596	1.37676	-0.122485	0	0	-0.360776	0.140583	-0.114333	-0.189654	-0.229366	-0.197149	0.759416	0.503415	0	0	-0.121549	-0.245537	0.0637394	0.784035	1.54948	0	0
0.06	2.75193	1.2967	-1.13723	0.662566	-0.501515	0.957372	-0.175863	0.104633	-0.17972	0.348156	-0.226564	0	0	0.0361874	-0.215299	-0.0900955	1.36351	-0.126173	0	0	-0.369211	0.134033	-0.107344	-0.19071	-0.229178	-0.194642	0.761023	0.499489	0	0	-0.129226	-0.24835	0.0626628	0.782934	1.54544	0	0
0.07	2.77929	1.29082	-1.17094	0.663567	-0.492354	0.958727	-0.20234	0.100242	-0.180953	0.334346	-0.228884	0	0	0.050333	-0.210328	-0.103953	1.35957	-0.118264	0	0	-0.379566	0.127173	-0.100975	-0.191249	-0.229979	-0.192153	0.763792	0.496788	0	0	-0.135461	-0.25063	0.0630635	0.781657	1.53963	0	0
0.08	2.80358	1.28394	-1.20194	0.664526	-0.483206	0.959972	-0.22877	0.0962551	-0.182216	0.321128	-0.230969	0	0	0.0622809	-0.208018	-0.12185	1.35091	-0.110091	0	0	-0.390574	0.12107	-0.093964	-0.192333	-0.231068	-0.190232	0.76789	0.494825	0	0	-0.141349	-0.252745	0.0644087	0.78108	1.53353	0	0
0.09	2.82452	1.27609	-1.23015	0.665458	-0.474052	0.96108	-0.256203	0.0927904	-0.182383	0.307808	-0.23284	0	0	0.0721331	-0.210036	-0.147256	1.33765	-0.105101	0	0	-0.402151	0.115632	-0.0860332	-0.193911	-0.232376	-0.189166	0.772996	0.493338	0	0	-0.147145	-0.254749	0.0661214	0.781645	1.52677	0	0
0.1	2.84224	1.26596	-1.25589	0.666393	-0.464842	0.96206	-0.28679	0.0902468	-0.179901	0.293576	-0.234306	0	0	0.0778743	-0.218166	-0.18271	1.31998	-0.105003	0	0	-0.415886	0.111304	-0.0768666	-0.196816	-0.234046	-0.189265	0.781174	0.491654	0	0	-0.15377	-0.257339	0.0687449	0.785209	1.51821	0	0
0.11	2.85737	1.25558	-1.27912	0.667294	-0.455541	0.962831	-0.317278	0.0876824	-0.17598	0.280436	-0.234274	0	0	0.0810503	-0.228546	-0.222571	1.29754	-0.109232	0	0	-0.429424	0.107253	-0.06786	-0.199979	-0.235685	-0.190091	0.79018	0.490292	0	0	-0.161135	-0.260303	0.0717695	0.790388	1.51017	0	0
0.12	2.86944	1.24489	-1.29876	0.6681	-0.446358	0.96356	-0.346352	0.0858054	-0.172644	0.266719	-0.23717	0	0	0.0815944	-0.237121	-0.259272	1.26866	-0.115615	0	0	-0.443341	0.103863	-0.0594568	-0.202137	-0.237247	-0.191225	0.798735	0.489009	0	0	-0.168039	-0.263308	0.0748471	0.795904	1.50312	0	0
0.13	2.88023	1.23596	-1.3166	0.668789	-0.437263	0.964021	-0.373404	0.0830341	-0.168999	0.254154	-0.23946	0	0	0.0820727	-0.241556	-0.290982	1.23405	-0.121775	0	0	-0.455542	0.100116	-0.0519156	-0.203419	-0.238675	-0.192389	0.80647	0.487383	0	0	-0.174458	-0.266111	0.0774382	0.80129	1.49648	0	0
0.14	2.89744	1.22272	-1.34208	0.669616	-0.42813	0.965049	-0.406196	0.0784179	-0.165299	0.239737	-0.243161	0	0	0.0723756	-0.242769	-0.325555	1.18994	-0.129823	0	0	-0.472809	0.0938358	-0.0440235	-0.203015	-0.239571	-0.193019	0.812684	0.485578	0	0	-0.180827	-0.268976	0.0789779	0.807219	1.49212	0	0
0.15	2.91185	1.21226	-1.36014	0.669908	-0.418763	0.965323	-0.435462	0.0744169	-0.167693	0.227277	-0.246089	0	0	0.066241	-0.241279	-0.353333	1.14438	-0.137056	0	0	-0.486036	0.0895671	-0.0402973	-0.204642	-0.240572	-0.194485	0.821386	0.483391	0	0	-0.188223	-0.271715	0.079955	0.814697	1.4878	0	0
0.16	2.92307	1.20464	-1.37427	0.67005	-0.409428	0.965234	-0.459413	0.0704204	-0.170125	0.219262	-0.246456	0	0	0.062279	-0.238596	-0.379996	1.09571	-0.143807	0	0	-0.495968	0.0859327	-0.0376392	-0.205263	-0.241637	-0.195365	0.828507	0.481155	0	0	-0.195124	-0.273627	0.0801235	0.820662	1.48507	0	0
0.17	2.93298	1.19814	-1.38648	0.670015	-0.40015	0.964908	-0.481155	0.0664546	-0.172473	0.212404	-0.245235	0	0	0.0582061	-0.234366	-0.406441	1.04405	-0.152608	0	0	-0.504957	0.0827948	-0.0355593	-0.20574	-0.242855	-0.196167	0.83596	0.478529	0	0	-0.201447	-0.274948	0.0796125	0.82625	1.48217	0	0
0.18	2.94151	1.19311	-1.39669	0.669804	-0.390919	0.964351	-0.500248	0.0625539	-0.174773	0.207295	-0.242881	0	0	0.0544033	-0.228353	-0.432213	0.989636	-0.163163	0	0	-0.512576	0.080143	-0.033884	-0.205968	-0.244543	-0.196247	0.843052	0.476178	0	0	-0.206704	-0.275844	0.0793135	0.83104	1.47884	0	0
0.19	2.94849	1.19017	-1.40443	0.669446	-0.381709	0.963512	-0.516112	0.0592867	-0.177396	0.204819	-0.239423	0	0	0.0517444	-0.220818	-0.456798	0.932738	-0.17466	0	0	-0.517993	0.0780041	-0.032831	-0.205832	-0.246349	-0.195957	0.849026	0.473615	0	0	-0.211208	-0.276488	0.0792433	0.834906	1.47582	0	0
0.2	2.95163	1.19158	-1.40716	0.668935	-0.372435	0.96219	-0.523599	0.0573169	-0.179861	0.205017	-0.23553	0	0	0.0536822	-0.212432	-0.477361	0.875378	-0.180409	0	0	-0.518447	0.0770416	-0.0326992	-0.205171	-0.247474	-0.196545	0.852996	0.471355	0	0	-0.215064	-0.27639	0.0788237	0.836691	1.47439	0	0
0.21	2.95599	1.19584	-1.4101	0.668268	-0.363216	0.960596	-0.523599	0.0543947	-0.184484	0.210354	-0.223559	0	0	0.0574606	-0.200648	-0.492145	0.81331	-0.194784	0	0	-0.516183	0.0753242	-0.033828	-0.203457	-0.248582	-0.195837	0.854849	0.465591	0	0	-0.217788	-0.276406	0.0792255	0.837087	1.47193	0	0
0.22	2.95671	1.20273	-1.40766	0.667425	-0.354008	0.958668	-0.523599	0.0530033	-0.188217	0.214574	-0.212841	0	0	0.0645181	-0.188297	-0.498739	0.750581	-0.200675	0	0	-0.510802	0.0751942	-0.0366844	-0.201372	-0.250103	-0.193711	0.855771	0.460086	0	0	-0.220445	-0.275701	0.0783651	0.836439	1.47062	0	0
0.23	2.95529	1.21095	-1.40182	0.666464	-0.344852	0.956528	-0.523599	0.0527802	-0.192088	0.219819	-0.203001	0	0	0.0727182	-0.174707	-0.496482	0.68524	-0.205692	0	0	-0.504069	0.075935	-0.040641	-0.199108	-0.251418	-0.191758	0.856343	0.455399	0	0	-0.222587	-0.274701	0.0764754	0.834919	1.46775	0	0
0.24	2.95239	1.22038	-1.39334	0.665342	-0.335706	0.954209	-0.523599	0.0534954	-0.196225	0.225729	-0.193867	0	0	0.081526	-0.160043	-0.486119	0.618442	-0.212026	0	0	-0.496053	0.0772727	-0.0457274	-0.196161	-0.252529	-0.18966	0.85572	0.451343	0	0	-0.224258	-0.273806	0.0746583	0.832663	1.46267	0	0
0.25	2.94856	1.23035	-1.38339	0.6641	-0.326526	0.951799	-0.523599	0.0545567	-0.200475	0.231723	-0.185202	0	0	0.0894022	-0.144619	-0.469879	0.551855	-0.21787	0	0	-0.487377	0.0788446	-0.0512599	-0.193054	-0.253522	-0.187753	0.85446	0.446861	0	0	-0.22547	-0.272663	0.0728938	0.829441	1.45844	0	0
0.26	2.94498	1.23991	-1.37393	0.662813	-0.317227	0.949416	-0.523599	0.0552743	-0.205392	0.238473	-0.176449	0	0	0.0944506	-0.128661	-0.450047	0.487436	-0.218987	0	0	-0.479027	0.0800445	-0.0563566	-0.190797	-0.254626	-0.186339	0.853694	0.442528	0	0	-0.226228	-0.271466	0.0712384	0.825433	1.45383	0	0
0.27	2.94125	1.24885	-1.36491	0.661537	-0.307779	0.947092	-0.523599	0.0556175	-0.209417	0.246298	-0.168431	0	0	0.0965046	-0.113405	-0.429543	0.427012	-0.213484	0	0	-0.471088	0.0808892	-0.0608161	-0.189112	-0.255916	-0.184936	0.853042	0.437728	0	0	-0.226969	-0.270402	0.0696689	0.820873	1.44847	0	0
0.28	2.93657	1.2565	-1.35595	0.660351	-0.298198	0.94491	-0.523599	0.0558544	-0.21187	0.25522	-0.161319	0	0	0.0952081	-0.100211	-0.410678	0.371327	-0.202708	0	0	-0.46425	0.0816298	-0.0638258	-0.188037	-0.257571	-0.18323	0.852541	0.433039	0	0	-0.227476	-0.269479	0.0684844	0.815886	1.44485	0	0
0.29	2.93197	1.26303	-1.34822	0.659311	-0.288438	0.94289	-0.523599	0.0554925	-0.215049	0.265247	-0.155332	0	0	0.0909684	-0.088965	-0.393222	0.319847	-0.191636	0	0	-0.458173	0.0816646	-0.0654632	-0.187311	-0.259302	-0.181045	0.851383	0.427605	0	0	-0.227921	-0.268989	0.0675699	0.810704	1.44058	0	0
